<?xml version="1.0" encoding="utf-8"?>
<!-- Generator: Adobe Illustrator 23.0.1, SVG Export Plug-In . SVG Version: 6.00 Build 0)  -->
<svg version="1.1" id="Logoblznc" xmlns="http://www.w3.org/2000/svg" xmlns:xlink="http://www.w3.org/1999/xlink" x="0px" y="0px"
	 viewBox="0 0 566.9 566.9" style="enable-background:new 0 0 566.9 566.9;" xml:space="preserve">
<style type="text/css">
	.st0{fill:#FFFFFF;}
</style>
<path class="st0" d="M318.6,201.2c0,0-10.3-16-30.9-25.4c0,0,26.8-5.5,41.5,2.3s36.9,9.5,36.9,9.5S350.2,208.3,318.6,201.2z"/>
<path class="st0" d="M262.5,0C188.2,0,120.6,28.6,70.1,75.3c31.4-15.7,66.8-24.6,104.3-24.6c96.1,0,178.7,58.3,214.2,141.5
	c20.4,49.5,8.6,109.4-33.6,65.3c0,0,27,0.3,33-9.7c0,0-28-8.7-36-18.3c-8-9.7-21.3-25-33.3-22.3c0,0-27.3-42-75.3-41.3
	s-18,23.3-85.3-15.3c0,0-12.7-10-18,0s-2.7,12-2.7,12s-6,4.7-0.7,16c0.1,0.2,0.2,0.4,0.3,0.7l-4.9,15.4l8.2-9.8
	c7.9,12.4,21.4,30.7,5.1,35.8c-11.8,3.6-14.6-5.8-16.3-14l5-10.7l-6,5.7c-0.6-3-1.3-5.3-2.7-5.6c0,0-14,12,0,34
	c12.3,19.3,41.3,21.7,66.3,43.2l0,0c36.1,36,7.8,95,7.8,95s34.6-4.8,37-36.9l0,0c0.1,0.1,29.2,57.9,3.7,78.9
	c-25.6,21-36.1,15.1-36.1,15.1s7.9,15.1,26.2,13.8c0,0-32.2,26.2-59.1,11.2c0,0,48.1,44.7,79.4,20.3c0,0-8.9,38.5-79.4,42.1l0,0
	c-18.2-0.1-39.2-2-63.4-6c-13.1-3.9-25.6-8.9-37.6-14.9c50.5,46.7,118.1,75.3,192.4,75.3c156.6,0,283.5-126.9,283.5-283.5
	C545.9,126.9,419,0,262.5,0z M226.5,181.9c18.2-0.8,33,2.6,45.8,8.4c0,0-13.3,5-25.6,4.4C234.3,194,226.5,181.9,226.5,181.9z
	 M321.5,280.9l-1,10.8l-3.4-10.5c-1.2-3.8-4-6.8-7.4-9.2c-3.4-2.3-7.4-4-11.6-5.2s-8.5-2-12.9-2.6c-1.7-0.2-3.5-0.4-5.3-0.5
	c2.6,3.8,4.2,8.1,5.3,12.4c1.6,6.9,2,13.9,1.8,20.7c-0.2,6.8-1.2,13.6-2.5,20.2c-1.3,6.7-2.9,13.1-5,19.7l-5.7,17.8l-1.2-18.6
	c-1.2-18.6-10.6-36.6-24.6-49.4c-3.4-3.1-7.5-6.3-11.3-7.5l-0.3-0.1c0,0.2,0.1,0.3,0.2,0.5l0.6,1.8c1,2.5,1.2,5.1,1.5,7.6
	c0.6,10.1-1,20-3.7,29.5c1.4-9.7,2.3-19.6,0.9-29.1c-0.5-2.3-0.9-4.7-1.9-6.7l-0.7-1.6c-0.3-0.7-0.6-1.4-0.7-2.4c0-0.6,0-1.3,0.5-2
	c0.5-0.8,1.1-1.1,1.8-1.3c0.6-0.2,1-0.2,1.6-0.2l1.2,0.2c2.9,0.7,5.2,1.9,7.4,3.3c2.2,1.4,4.3,2.8,6.3,4.4
	c7.8,6.5,14.4,14.4,19.4,23.4c2.4,4.4,4.4,9,5.9,13.8c0.3-1.4,0.6-2.8,0.9-4.1c1.2-6.4,2-12.8,2.3-19.2c0.3-6.4,0-12.8-1.4-18.7
	c-1.4-5.9-4.1-11.5-8.4-15.2l-7.3-6.2l9.4,0.3c4.8,0.1,9.4,0.6,14.1,1.3c4.6,0.7,9.2,1.8,13.7,3.3s8.9,3.5,12.9,6.5
	c1.7,1.3,3.3,2.9,4.7,4.6c0-1.4,0-2.9-0.1-4.3c-0.3-4.1-1.2-8.1-2.8-11.9c-1.6-3.7-4.1-7-7.4-9.6c-3.2-2.7-7.3-4-11.3-5.1
	c4.1,0.6,8.5,1.4,12.2,3.9c3.7,2.4,6.7,5.7,8.8,9.6c2.1,3.9,3.3,8.2,4.1,12.5C321.7,272.1,321.9,276.4,321.5,280.9z"/>
</svg>
